<svg id="svgwgepi80" xmlns="http://www.w3.org/2000/svg" version="1.1" font-size="20px" viewBox="0 0 1474 743" width="1474px" height="743px" font-family="Lucida Console, Courier, monospace"><style>#svgwgepi80{cursor:default;}#svgwgepi80 text::selection{background-color:#b4d5ea;}</style><rect width="1474" height="743" fill="#f0f0f0" pointer-events="none"/><text x="40" y="70">T</text><text x="52.0625" y="70">h</text><text x="64.125" y="70">e</text><text x="76.1875" y="70">&#xA0;</text><text x="88.25" y="70">P</text><text x="100.3125" y="70">r</text><text x="112.375" y="70">o</text><text x="124.4375" y="70">j</text><text x="136.5" y="70">e</text><text x="148.5625" y="70">c</text><text x="160.625" y="70">t</text><text x="172.6875" y="70">&#xA0;</text><text x="184.75" y="70">G</text><text x="196.8125" y="70">u</text><text x="208.875" y="70">t</text><text x="220.9375" y="70">e</text><text x="233" y="70">n</text><text x="245.0625" y="70">b</text><text x="257.125" y="70">e</text><text x="269.1875" y="70">r</text><text x="281.25" y="70">g</text><text x="293.3125" y="70">&#xA0;</text><text x="305.375" y="70">E</text><text x="317.4375" y="70">B</text><text x="329.5" y="70">o</text><text x="341.5625" y="70">o</text><text x="353.625" y="70">k</text><text x="365.6875" y="70">&#xA0;</text><text x="377.75" y="70">o</text><text x="389.8125" y="70">f</text><text x="401.875" y="70">&#xA0;</text><text x="413.9375" y="70">A</text><text x="426" y="70">l</text><text x="438.0625" y="70">i</text><text x="450.125" y="70">c</text><text x="462.1875" y="70">e</text><text x="474.25" y="70">&#xA0;</text><text x="486.3125" y="70">i</text><text x="498.375" y="70">n</text><text x="510.4375" y="70">&#xA0;</text><text x="522.5" y="70">W</text><text x="534.5625" y="70">o</text><text x="546.625" y="70">n</text><text x="558.6875" y="70">d</text><text x="570.75" y="70">e</text><text x="582.8125" y="70">r</text><text x="594.875" y="70">l</text><text x="606.9375" y="70">a</text><text x="619" y="70">n</text><text x="631.0625" y="70">d</text><text x="643.125" y="70">,</text><text x="655.1875" y="70">&#xA0;</text><text x="667.25" y="70">b</text><text x="679.3125" y="70">y</text><text x="691.375" y="70">&#xA0;</text><text x="703.4375" y="70">L</text><text x="715.5" y="70">e</text><text x="727.5625" y="70">w</text><text x="739.625" y="70">i</text><text x="751.6875" y="70">s</text><text x="763.75" y="70">&#xA0;</text><text x="775.8125" y="70">C</text><text x="787.875" y="70">a</text><text x="799.9375" y="70">r</text><text x="812" y="70">r</text><text x="824.0625" y="70">o</text><text x="836.125" y="70">l</text><text x="848.1875" y="70">l</text><text x="40" y="100">T</text><text x="52.0625" y="100">h</text><text x="64.125" y="100">i</text><text x="76.1875" y="100">s</text><text x="88.25" y="100">&#xA0;</text><text x="100.3125" y="100">e</text><text x="112.375" y="100">B</text><text x="124.4375" y="100">o</text><text x="136.5" y="100">o</text><text x="148.5625" y="100">k</text><text x="160.625" y="100">&#xA0;</text><text x="172.6875" y="100">i</text><text x="184.75" y="100">s</text><text x="196.8125" y="100">&#xA0;</text><text x="208.875" y="100">f</text><text x="220.9375" y="100">o</text><text x="233" y="100">r</text><text x="245.0625" y="100">&#xA0;</text><text x="257.125" y="100">t</text><text x="269.1875" y="100">h</text><text x="281.25" y="100">e</text><text x="293.3125" y="100">&#xA0;</text><text x="305.375" y="100">u</text><text x="317.4375" y="100">s</text><text x="329.5" y="100">e</text><text x="341.5625" y="100">&#xA0;</text><text x="353.625" y="100">o</text><text x="365.6875" y="100">f</text><text x="377.75" y="100">&#xA0;</text><text x="389.8125" y="100">a</text><text x="401.875" y="100">n</text><text x="413.9375" y="100">y</text><text x="426" y="100">o</text><text x="438.0625" y="100">n</text><text x="450.125" y="100">e</text><text x="462.1875" y="100">&#xA0;</text><text x="474.25" y="100">a</text><text x="486.3125" y="100">n</text><text x="498.375" y="100">y</text><text x="510.4375" y="100">w</text><text x="522.5" y="100">h</text><text x="534.5625" y="100">e</text><text x="546.625" y="100">r</text><text x="558.6875" y="100">e</text><text x="570.75" y="100">&#xA0;</text><text x="582.8125" y="100">a</text><text x="594.875" y="100">t</text><text x="606.9375" y="100">&#xA0;</text><text x="619" y="100">n</text><text x="631.0625" y="100">o</text><text x="643.125" y="100">&#xA0;</text><text x="655.1875" y="100">c</text><text x="667.25" y="100">o</text><text x="679.3125" y="100">s</text><text x="691.375" y="100">t</text><text x="703.4375" y="100">&#xA0;</text><text x="715.5" y="100">a</text><text x="727.5625" y="100">n</text><text x="739.625" y="100">d</text><text x="751.6875" y="100">&#xA0;</text><text x="763.75" y="100">w</text><text x="775.8125" y="100">i</text><text x="787.875" y="100">t</text><text x="799.9375" y="100">h</text><text x="812" y="100">&#xA0;</text><text x="824.0625" y="100">a</text><text x="836.125" y="100">l</text><text x="848.1875" y="100">m</text><text x="860.25" y="100">o</text><text x="872.3125" y="100">s</text><text x="884.375" y="100">t</text><text x="896.4375" y="100">&#xA0;</text><text x="908.5" y="100">n</text><text x="920.5625" y="100">o</text><text x="932.625" y="100">&#xA0;</text><text x="944.6875" y="100">r</text><text x="956.75" y="100">e</text><text x="968.8125" y="100">s</text><text x="980.875" y="100">t</text><text x="992.9375" y="100">r</text><text x="1005" y="100">i</text><text x="1017.0625" y="100">c</text><text x="1029.125" y="100">t</text><text x="1041.1875" y="100">i</text><text x="1053.25" y="100">o</text><text x="1065.3125" y="100">n</text><text x="1077.375" y="100">s</text><text x="1089.4375" y="100">&#xA0;</text><text x="1101.5" y="100">w</text><text x="1113.5625" y="100">h</text><text x="1125.625" y="100">a</text><text x="1137.6875" y="100">t</text><text x="1149.75" y="100">s</text><text x="1161.8125" y="100">o</text><text x="1173.875" y="100">e</text><text x="1185.9375" y="100">v</text><text x="1198" y="100">e</text><text x="1210.0625" y="100">r</text><text x="1222.125" y="100">.</text><text x="1234.1875" y="100">&#xA0;</text><text x="1246.25" y="100">Y</text><text x="1258.3125" y="100">o</text><text x="1270.375" y="100">u</text><text x="1282.4375" y="100">&#xA0;</text><text x="1294.5" y="100">m</text><text x="1306.5625" y="100">a</text><text x="1318.625" y="100">y</text><text x="1330.6875" y="100">&#xA0;</text><text x="1342.75" y="100">c</text><text x="1354.8125" y="100">o</text><text x="1366.875" y="100">p</text><text x="1378.9375" y="100">y</text><text x="1391" y="100">&#xA0;</text><text x="1403.0625" y="100">i</text><text x="1415.125" y="100">t</text><text x="1427.1875" y="100">,</text><text x="40" y="130">g</text><text x="52.0625" y="130">i</text><text x="64.125" y="130">v</text><text x="76.1875" y="130">e</text><text x="88.25" y="130">&#xA0;</text><text x="100.3125" y="130">i</text><text x="112.375" y="130">t</text><text x="124.4375" y="130">&#xA0;</text><text x="136.5" y="130">a</text><text x="148.5625" y="130">w</text><text x="160.625" y="130">a</text><text x="172.6875" y="130">y</text><text x="184.75" y="130">&#xA0;</text><text x="196.8125" y="130">o</text><text x="208.875" y="130">r</text><text x="220.9375" y="130">&#xA0;</text><text x="233" y="130">r</text><text x="245.0625" y="130">e</text><text x="257.125" y="130">-</text><text x="269.1875" y="130">u</text><text x="281.25" y="130">s</text><text x="293.3125" y="130">e</text><text x="305.375" y="130">&#xA0;</text><text x="317.4375" y="130">i</text><text x="329.5" y="130">t</text><text x="341.5625" y="130">&#xA0;</text><text x="353.625" y="130">u</text><text x="365.6875" y="130">n</text><text x="377.75" y="130">d</text><text x="389.8125" y="130">e</text><text x="401.875" y="130">r</text><text x="413.9375" y="130">&#xA0;</text><text x="426" y="130">t</text><text x="438.0625" y="130">h</text><text x="450.125" y="130">e</text><text x="462.1875" y="130">&#xA0;</text><text x="474.25" y="130">t</text><text x="486.3125" y="130">e</text><text x="498.375" y="130">r</text><text x="510.4375" y="130">m</text><text x="522.5" y="130">s</text><text x="534.5625" y="130">&#xA0;</text><text x="546.625" y="130">o</text><text x="558.6875" y="130">f</text><text x="570.75" y="130">&#xA0;</text><text x="582.8125" y="130">t</text><text x="594.875" y="130">h</text><text x="606.9375" y="130">e</text><text x="619" y="130">&#xA0;</text><text x="631.0625" y="130">P</text><text x="643.125" y="130">r</text><text x="655.1875" y="130">o</text><text x="667.25" y="130">j</text><text x="679.3125" y="130">e</text><text x="691.375" y="130">c</text><text x="703.4375" y="130">t</text><text x="715.5" y="130">&#xA0;</text><text x="727.5625" y="130">G</text><text x="739.625" y="130">u</text><text x="751.6875" y="130">t</text><text x="763.75" y="130">e</text><text x="775.8125" y="130">n</text><text x="787.875" y="130">b</text><text x="799.9375" y="130">e</text><text x="812" y="130">r</text><text x="824.0625" y="130">g</text><text x="836.125" y="130">&#xA0;</text><text x="848.1875" y="130">L</text><text x="860.25" y="130">i</text><text x="872.3125" y="130">c</text><text x="884.375" y="130">e</text><text x="896.4375" y="130">n</text><text x="908.5" y="130">s</text><text x="920.5625" y="130">e</text><text x="932.625" y="130">&#xA0;</text><text x="944.6875" y="130">i</text><text x="956.75" y="130">n</text><text x="968.8125" y="130">c</text><text x="980.875" y="130">l</text><text x="992.9375" y="130">u</text><text x="1005" y="130">d</text><text x="1017.0625" y="130">e</text><text x="1029.125" y="130">d</text><text x="1041.1875" y="130">&#xA0;</text><text x="1053.25" y="130">w</text><text x="1065.3125" y="130">i</text><text x="1077.375" y="130">t</text><text x="1089.4375" y="130">h</text><text x="1101.5" y="130">&#xA0;</text><text x="1113.5625" y="130">t</text><text x="1125.625" y="130">h</text><text x="1137.6875" y="130">i</text><text x="1149.75" y="130">s</text><text x="1161.8125" y="130">&#xA0;</text><text x="1173.875" y="130">e</text><text x="1185.9375" y="130">B</text><text x="1198" y="130">o</text><text x="1210.0625" y="130">o</text><text x="1222.125" y="130">k</text><text x="1234.1875" y="130">&#xA0;</text><text x="1246.25" y="130">o</text><text x="1258.3125" y="130">r</text><text x="1270.375" y="130">&#xA0;</text><text x="1282.4375" y="130">o</text><text x="1294.5" y="130">n</text><text x="1306.5625" y="130">l</text><text x="1318.625" y="130">i</text><text x="1330.6875" y="130">n</text><text x="1342.75" y="130">e</text><text x="1354.8125" y="130">&#xA0;</text><text x="1366.875" y="130">a</text><text x="1378.9375" y="130">t</text><text x="1391" y="130">&#xA0;</text><text x="1403.0625" y="130">w</text><text x="1415.125" y="130">w</text><text x="1427.1875" y="130">-</text><text x="40" y="160">w</text><text x="52.0625" y="160">.</text><text x="64.125" y="160">g</text><text x="76.1875" y="160">u</text><text x="88.25" y="160">t</text><text x="100.3125" y="160">e</text><text x="112.375" y="160">n</text><text x="124.4375" y="160">b</text><text x="136.5" y="160">e</text><text x="148.5625" y="160">r</text><text x="160.625" y="160">g</text><text x="172.6875" y="160">.</text><text x="184.75" y="160">o</text><text x="196.8125" y="160">r</text><text x="208.875" y="160">g</text><text x="40" y="190">T</text><text x="52.0625" y="190">i</text><text x="64.125" y="190">t</text><text x="76.1875" y="190">l</text><text x="88.25" y="190">e</text><text x="100.3125" y="190">:</text><text x="112.375" y="190">&#xA0;</text><text x="124.4375" y="190">A</text><text x="136.5" y="190">l</text><text x="148.5625" y="190">i</text><text x="160.625" y="190">c</text><text x="172.6875" y="190">e</text><text x="184.75" y="190">&#xA0;</text><text x="196.8125" y="190">i</text><text x="208.875" y="190">n</text><text x="220.9375" y="190">&#xA0;</text><text x="233" y="190">W</text><text x="245.0625" y="190">o</text><text x="257.125" y="190">n</text><text x="269.1875" y="190">d</text><text x="281.25" y="190">e</text><text x="293.3125" y="190">r</text><text x="305.375" y="190">l</text><text x="317.4375" y="190">a</text><text x="329.5" y="190">n</text><text x="341.5625" y="190">d</text><text x="40" y="220">A</text><text x="52.0625" y="220">u</text><text x="64.125" y="220">t</text><text x="76.1875" y="220">h</text><text x="88.25" y="220">o</text><text x="100.3125" y="220">r</text><text x="112.375" y="220">:</text><text x="124.4375" y="220">&#xA0;</text><text x="136.5" y="220">L</text><text x="148.5625" y="220">e</text><text x="160.625" y="220">w</text><text x="172.6875" y="220">i</text><text x="184.75" y="220">s</text><text x="196.8125" y="220">&#xA0;</text><text x="208.875" y="220">C</text><text x="220.9375" y="220">a</text><text x="233" y="220">r</text><text x="245.0625" y="220">r</text><text x="257.125" y="220">o</text><text x="269.1875" y="220">l</text><text x="281.25" y="220">l</text><text x="40" y="250">I</text><text x="52.0625" y="250">l</text><text x="64.125" y="250">l</text><text x="76.1875" y="250">u</text><text x="88.25" y="250">s</text><text x="100.3125" y="250">t</text><text x="112.375" y="250">r</text><text x="124.4375" y="250">a</text><text x="136.5" y="250">t</text><text x="148.5625" y="250">o</text><text x="160.625" y="250">r</text><text x="172.6875" y="250">:</text><text x="184.75" y="250">&#xA0;</text><text x="196.8125" y="250">G</text><text x="208.875" y="250">o</text><text x="220.9375" y="250">r</text><text x="233" y="250">d</text><text x="245.0625" y="250">o</text><text x="257.125" y="250">n</text><text x="269.1875" y="250">&#xA0;</text><text x="281.25" y="250">R</text><text x="293.3125" y="250">o</text><text x="305.375" y="250">b</text><text x="317.4375" y="250">i</text><text x="329.5" y="250">n</text><text x="341.5625" y="250">s</text><text x="353.625" y="250">o</text><text x="365.6875" y="250">n</text><text x="40" y="280">R</text><text x="52.0625" y="280">e</text><text x="64.125" y="280">l</text><text x="76.1875" y="280">e</text><text x="88.25" y="280">a</text><text x="100.3125" y="280">s</text><text x="112.375" y="280">e</text><text x="124.4375" y="280">&#xA0;</text><text x="136.5" y="280">D</text><text x="148.5625" y="280">a</text><text x="160.625" y="280">t</text><text x="172.6875" y="280">e</text><text x="184.75" y="280">:</text><text x="196.8125" y="280">&#xA0;</text><text x="208.875" y="280">A</text><text x="220.9375" y="280">u</text><text x="233" y="280">g</text><text x="245.0625" y="280">u</text><text x="257.125" y="280">s</text><text x="269.1875" y="280">t</text><text x="281.25" y="280">&#xA0;</text><text x="293.3125" y="280">1</text><text x="305.375" y="280">2</text><text x="317.4375" y="280">,</text><text x="329.5" y="280">&#xA0;</text><text x="341.5625" y="280">2</text><text x="353.625" y="280">0</text><text x="365.6875" y="280">0</text><text x="377.75" y="280">6</text><text x="389.8125" y="280">&#xA0;</text><text x="401.875" y="280">[</text><text x="413.9375" y="280">E</text><text x="426" y="280">B</text><text x="438.0625" y="280">o</text><text x="450.125" y="280">o</text><text x="462.1875" y="280">k</text><text x="474.25" y="280">&#xA0;</text><text x="486.3125" y="280">#</text><text x="498.375" y="280">1</text><text x="510.4375" y="280">9</text><text x="522.5" y="280">0</text><text x="534.5625" y="280">3</text><text x="546.625" y="280">3</text><text x="558.6875" y="280">]</text><text x="40" y="310">L</text><text x="52.0625" y="310">a</text><text x="64.125" y="310">n</text><text x="76.1875" y="310">g</text><text x="88.25" y="310">u</text><text x="100.3125" y="310">a</text><text x="112.375" y="310">g</text><text x="124.4375" y="310">e</text><text x="136.5" y="310">:</text><text x="148.5625" y="310">&#xA0;</text><text x="160.625" y="310">E</text><text x="172.6875" y="310">n</text><text x="184.75" y="310">g</text><text x="196.8125" y="310">l</text><text x="208.875" y="310">i</text><text x="220.9375" y="310">s</text><text x="233" y="310">h</text><text x="40" y="340">*</text><text x="52.0625" y="340">*</text><text x="64.125" y="340">*</text><text x="76.1875" y="340">&#xA0;</text><text x="88.25" y="340">S</text><text x="100.3125" y="340">T</text><text x="112.375" y="340">A</text><text x="124.4375" y="340">R</text><text x="136.5" y="340">T</text><text x="148.5625" y="340">&#xA0;</text><text x="160.625" y="340">O</text><text x="172.6875" y="340">F</text><text x="184.75" y="340">&#xA0;</text><text x="196.8125" y="340">T</text><text x="208.875" y="340">H</text><text x="220.9375" y="340">I</text><text x="233" y="340">S</text><text x="245.0625" y="340">&#xA0;</text><text x="257.125" y="340">P</text><text x="269.1875" y="340">R</text><text x="281.25" y="340">O</text><text x="293.3125" y="340">J</text><text x="305.375" y="340">E</text><text x="317.4375" y="340">C</text><text x="329.5" y="340">T</text><text x="341.5625" y="340">&#xA0;</text><text x="353.625" y="340">G</text><text x="365.6875" y="340">U</text><text x="377.75" y="340">T</text><text x="389.8125" y="340">E</text><text x="401.875" y="340">N</text><text x="413.9375" y="340">B</text><text x="426" y="340">E</text><text x="438.0625" y="340">R</text><text x="450.125" y="340">G</text><text x="462.1875" y="340">&#xA0;</text><text x="474.25" y="340">E</text><text x="486.3125" y="340">B</text><text x="498.375" y="340">O</text><text x="510.4375" y="340">O</text><text x="522.5" y="340">K</text><text x="534.5625" y="340">&#xA0;</text><text x="546.625" y="340">A</text><text x="558.6875" y="340">L</text><text x="570.75" y="340">I</text><text x="582.8125" y="340">C</text><text x="594.875" y="340">E</text><text x="606.9375" y="340">&#xA0;</text><text x="619" y="340">I</text><text x="631.0625" y="340">N</text><text x="643.125" y="340">&#xA0;</text><text x="655.1875" y="340">W</text><text x="667.25" y="340">O</text><text x="679.3125" y="340">N</text><text x="691.375" y="340">D</text><text x="703.4375" y="340">E</text><text x="715.5" y="340">R</text><text x="727.5625" y="340">L</text><text x="739.625" y="340">A</text><text x="751.6875" y="340">N</text><text x="763.75" y="340">D</text><text x="775.8125" y="340">&#xA0;</text><text x="787.875" y="340">*</text><text x="799.9375" y="340">*</text><text x="812" y="340">*</text><text x="40" y="370">P</text><text x="52.0625" y="370">r</text><text x="64.125" y="370">o</text><text x="76.1875" y="370">d</text><text x="88.25" y="370">u</text><text x="100.3125" y="370">c</text><text x="112.375" y="370">e</text><text x="124.4375" y="370">d</text><text x="136.5" y="370">&#xA0;</text><text x="148.5625" y="370">b</text><text x="160.625" y="370">y</text><text x="172.6875" y="370">&#xA0;</text><text x="184.75" y="370">J</text><text x="196.8125" y="370">a</text><text x="208.875" y="370">s</text><text x="220.9375" y="370">o</text><text x="233" y="370">n</text><text x="245.0625" y="370">&#xA0;</text><text x="257.125" y="370">I</text><text x="269.1875" y="370">s</text><text x="281.25" y="370">b</text><text x="293.3125" y="370">e</text><text x="305.375" y="370">l</text><text x="317.4375" y="370">l</text><text x="329.5" y="370">,</text><text x="341.5625" y="370">&#xA0;</text><text x="353.625" y="370">I</text><text x="365.6875" y="370">r</text><text x="377.75" y="370">m</text><text x="389.8125" y="370">a</text><text x="401.875" y="370">&#xA0;</text><text x="413.9375" y="370">S</text><text x="426" y="370">p</text><text x="438.0625" y="370">e</text><text x="450.125" y="370">h</text><text x="462.1875" y="370">a</text><text x="474.25" y="370">r</text><text x="486.3125" y="370">,</text><text x="498.375" y="370">&#xA0;</text><text x="510.4375" y="370">a</text><text x="522.5" y="370">n</text><text x="534.5625" y="370">d</text><text x="546.625" y="370">&#xA0;</text><text x="558.6875" y="370">t</text><text x="570.75" y="370">h</text><text x="582.8125" y="370">e</text><text x="594.875" y="370">&#xA0;</text><text x="606.9375" y="370">O</text><text x="619" y="370">n</text><text x="631.0625" y="370">l</text><text x="643.125" y="370">i</text><text x="655.1875" y="370">n</text><text x="667.25" y="370">e</text><text x="679.3125" y="370">&#xA0;</text><text x="691.375" y="370">D</text><text x="703.4375" y="370">i</text><text x="715.5" y="370">s</text><text x="727.5625" y="370">t</text><text x="739.625" y="370">r</text><text x="751.6875" y="370">i</text><text x="763.75" y="370">b</text><text x="775.8125" y="370">u</text><text x="787.875" y="370">t</text><text x="799.9375" y="370">e</text><text x="812" y="370">d</text><text x="824.0625" y="370">&#xA0;</text><text x="836.125" y="370">P</text><text x="848.1875" y="370">r</text><text x="860.25" y="370">o</text><text x="872.3125" y="370">o</text><text x="884.375" y="370">f</text><text x="896.4375" y="370">r</text><text x="908.5" y="370">e</text><text x="920.5625" y="370">a</text><text x="932.625" y="370">d</text><text x="944.6875" y="370">i</text><text x="956.75" y="370">n</text><text x="968.8125" y="370">g</text><text x="980.875" y="370">&#xA0;</text><text x="992.9375" y="370">T</text><text x="1005" y="370">e</text><text x="1017.0625" y="370">a</text><text x="1029.125" y="370">m</text><text x="1041.1875" y="370">&#xA0;</text><text x="1053.25" y="370">a</text><text x="1065.3125" y="370">t</text><text x="1077.375" y="370">&#xA0;</text><text x="1089.4375" y="370">h</text><text x="1101.5" y="370">t</text><text x="1113.5625" y="370">t</text><text x="1125.625" y="370">p</text><text x="1137.6875" y="370">:</text><text x="1149.75" y="370">/</text><text x="1161.8125" y="370">/</text><text x="1173.875" y="370">w</text><text x="1185.9375" y="370">w</text><text x="1198" y="370">w</text><text x="1210.0625" y="370">.</text><text x="1222.125" y="370">p</text><text x="1234.1875" y="370">g</text><text x="1246.25" y="370">d</text><text x="1258.3125" y="370">p</text><text x="1270.375" y="370">.</text><text x="1282.4375" y="370">n</text><text x="1294.5" y="370">e</text><text x="1306.5625" y="370">t</text><text x="40" y="405.1" style="font-weight:bold;font-size:23.4px;">T</text><text x="54.5781" y="405.1" style="font-weight:bold;font-size:23.4px;">H</text><text x="69.1562" y="405.1" style="font-weight:bold;font-size:23.4px;">E</text><text x="83.73429999999999" y="405.1" style="font-weight:bold;font-size:23.4px;">&#xA0;</text><text x="97.84369999999998" y="405.1" style="font-weight:bold;font-size:23.4px;">&quot;</text><text x="112.42179999999999" y="405.1" style="font-weight:bold;font-size:23.4px;">S</text><text x="126.9999" y="405.1" style="font-weight:bold;font-size:23.4px;">T</text><text x="141.578" y="405.1" style="font-weight:bold;font-size:23.4px;">O</text><text x="156.1561" y="405.1" style="font-weight:bold;font-size:23.4px;">R</text><text x="170.73420000000002" y="405.1" style="font-weight:bold;font-size:23.4px;">Y</text><text x="185.31230000000002" y="405.1" style="font-weight:bold;font-size:23.4px;">L</text><text x="199.89040000000003" y="405.1" style="font-weight:bold;font-size:23.4px;">A</text><text x="214.46850000000003" y="405.1" style="font-weight:bold;font-size:23.4px;">N</text><text x="229.04660000000004" y="405.1" style="font-weight:bold;font-size:23.4px;">D</text><text x="243.62470000000005" y="405.1" style="font-weight:bold;font-size:23.4px;">&quot;</text><text x="258.2028" y="405.1" style="font-weight:bold;font-size:23.4px;">&#xA0;</text><text x="272.3122" y="405.1" style="font-weight:bold;font-size:23.4px;">S</text><text x="286.8903" y="405.1" style="font-weight:bold;font-size:23.4px;">E</text><text x="301.46840000000003" y="405.1" style="font-weight:bold;font-size:23.4px;">R</text><text x="316.04650000000004" y="405.1" style="font-weight:bold;font-size:23.4px;">I</text><text x="330.62460000000004" y="405.1" style="font-weight:bold;font-size:23.4px;">E</text><text x="345.20270000000005" y="405.1" style="font-weight:bold;font-size:23.4px;">S</text><text x="40" y="465.1" style="font-weight:bold;font-size:40px;">A</text><text x="64.9062" y="465.1" style="font-weight:bold;font-size:40px;">L</text><text x="89.8124" y="465.1" style="font-weight:bold;font-size:40px;">I</text><text x="114.7186" y="465.1" style="font-weight:bold;font-size:40px;">C</text><text x="139.6248" y="465.1" style="font-weight:bold;font-size:40px;">E</text><text x="164.531" y="465.1" style="font-weight:bold;font-size:40px;">&#39;</text><text x="189.43720000000002" y="465.1" style="font-weight:bold;font-size:40px;">S</text><text x="214.34340000000003" y="465.1" style="font-weight:bold;font-size:40px;">&#xA0;</text><text x="238.45280000000002" y="465.1" style="font-weight:bold;font-size:40px;">A</text><text x="263.35900000000004" y="465.1" style="font-weight:bold;font-size:40px;">D</text><text x="288.26520000000005" y="465.1" style="font-weight:bold;font-size:40px;">V</text><text x="313.17140000000006" y="465.1" style="font-weight:bold;font-size:40px;">E</text><text x="338.0776000000001" y="465.1" style="font-weight:bold;font-size:40px;">N</text><text x="362.9838000000001" y="465.1" style="font-weight:bold;font-size:40px;">T</text><text x="387.8900000000001" y="465.1" style="font-weight:bold;font-size:40px;">U</text><text x="412.7962000000001" y="465.1" style="font-weight:bold;font-size:40px;">R</text><text x="437.7024000000001" y="465.1" style="font-weight:bold;font-size:40px;">E</text><text x="462.60860000000014" y="465.1" style="font-weight:bold;font-size:40px;">S</text><text x="487.51480000000015" y="465.1" style="font-weight:bold;font-size:40px;">&#xA0;</text><text x="511.62420000000014" y="465.1" style="font-weight:bold;font-size:40px;">I</text><text x="536.5304000000001" y="465.1" style="font-weight:bold;font-size:40px;">N</text><text x="561.4366000000001" y="465.1" style="font-weight:bold;font-size:40px;">&#xA0;</text><text x="585.5460000000002" y="465.1" style="font-weight:bold;font-size:40px;">W</text><text x="610.4522000000002" y="465.1" style="font-weight:bold;font-size:40px;">O</text><text x="635.3584000000002" y="465.1" style="font-weight:bold;font-size:40px;">N</text><text x="660.2646000000002" y="465.1" style="font-weight:bold;font-size:40px;">D</text><text x="685.1708000000002" y="465.1" style="font-weight:bold;font-size:40px;">E</text><text x="710.0770000000002" y="465.1" style="font-weight:bold;font-size:40px;">R</text><text x="734.9832000000002" y="465.1" style="font-weight:bold;font-size:40px;">L</text><text x="759.8894000000003" y="465.1" style="font-weight:bold;font-size:40px;">A</text><text x="784.7956000000003" y="465.1" style="font-weight:bold;font-size:40px;">N</text><text x="809.7018000000003" y="465.1" style="font-weight:bold;font-size:40px;">D</text><image x="40" y="480.1" height="90" href="C:\Users\郝洪坤\Desktop\FrontEnd\svg-ebook-reader\images\www.gutenberg.org@files@19033@19033-h@images@cover_th.jpg" alt="${alt}"/><text x="40" y="600.1" style="font-weight:bold;font-size:20px;">S</text><text x="52.0625" y="600.1" style="font-weight:bold;font-size:20px;">A</text><text x="64.125" y="600.1" style="font-weight:bold;font-size:20px;">M</text><text x="76.5781" y="600.1" style="font-weight:bold;font-size:20px;">&#39;</text><text x="89.03120000000001" y="600.1" style="font-weight:bold;font-size:20px;">L</text><text x="101.09370000000001" y="600.1" style="font-weight:bold;font-size:20px;">&#xA0;</text><text x="113.15620000000001" y="600.1" style="font-weight:bold;font-size:20px;">G</text><text x="125.21870000000001" y="600.1" style="font-weight:bold;font-size:20px;">A</text><text x="137.2812" y="600.1" style="font-weight:bold;font-size:20px;">B</text><text x="149.3437" y="600.1" style="font-weight:bold;font-size:20px;">R</text><text x="161.4062" y="600.1" style="font-weight:bold;font-size:20px;">I</text><text x="173.4687" y="600.1" style="font-weight:bold;font-size:20px;">E</text><text x="185.5312" y="600.1" style="font-weight:bold;font-size:20px;">L</text><text x="197.5937" y="600.1" style="font-weight:bold;font-size:20px;">&#xA0;</text><text x="209.6562" y="600.1" style="font-weight:bold;font-size:20px;">S</text><text x="221.7187" y="600.1" style="font-weight:bold;font-size:20px;">O</text><text x="233.7812" y="600.1" style="font-weight:bold;font-size:20px;">N</text><text x="245.8437" y="600.1" style="font-weight:bold;font-size:20px;">S</text><text x="257.9062" y="600.1" style="font-weight:bold;font-size:20px;">&#xA0;</text><text x="269.9687" y="600.1" style="font-weight:bold;font-size:20px;">&amp;</text><text x="282.4218" y="600.1" style="font-weight:bold;font-size:20px;">&#xA0;</text><text x="294.4843" y="600.1" style="font-weight:bold;font-size:20px;">C</text><text x="306.5468" y="600.1" style="font-weight:bold;font-size:20px;">O</text><text x="318.6093" y="600.1" style="font-weight:bold;font-size:20px;">M</text><text x="331.0624" y="600.1" style="font-weight:bold;font-size:20px;">P</text><text x="343.1249" y="600.1" style="font-weight:bold;font-size:20px;">A</text><text x="355.1874" y="600.1" style="font-weight:bold;font-size:20px;">N</text><text x="367.2499" y="600.1" style="font-weight:bold;font-size:20px;">Y</text><text x="379.3124" y="600.1" style="font-weight:bold;font-size:20px;">&#xA0;</text><text x="391.3749" y="600.1" style="font-weight:bold;font-size:20px;">N</text><text x="403.4374" y="600.1" style="font-weight:bold;font-size:20px;">E</text><text x="415.4999" y="600.1" style="font-weight:bold;font-size:20px;">W</text><text x="427.5624" y="600.1" style="font-weight:bold;font-size:20px;">&#xA0;</text><text x="439.6249" y="600.1" style="font-weight:bold;font-size:20px;">Y</text><text x="451.6874" y="600.1" style="font-weight:bold;font-size:20px;">O</text><text x="463.7499" y="600.1" style="font-weight:bold;font-size:20px;">R</text><text x="475.8124" y="600.1" style="font-weight:bold;font-size:20px;">K</text><text x="40" y="630.1" style="font-weight:bold;font-size:20px;">C</text><text x="52.0625" y="630.1" style="font-weight:bold;font-size:20px;">o</text><text x="64.125" y="630.1" style="font-weight:bold;font-size:20px;">p</text><text x="76.1875" y="630.1" style="font-weight:bold;font-size:20px;">y</text><text x="88.25" y="630.1" style="font-weight:bold;font-size:20px;">r</text><text x="100.3125" y="630.1" style="font-weight:bold;font-size:20px;">i</text><text x="112.375" y="630.1" style="font-weight:bold;font-size:20px;">g</text><text x="124.4375" y="630.1" style="font-weight:bold;font-size:20px;">h</text><text x="136.5" y="630.1" style="font-weight:bold;font-size:20px;">t</text><text x="148.5625" y="630.1" style="font-weight:bold;font-size:20px;">,</text><text x="160.625" y="630.1" style="font-weight:bold;font-size:20px;">&#xA0;</text><text x="172.6875" y="630.1" style="font-weight:bold;font-size:20px;">1</text><text x="184.75" y="630.1" style="font-weight:bold;font-size:20px;">9</text><text x="196.8125" y="630.1" style="font-weight:bold;font-size:20px;">1</text><text x="208.875" y="630.1" style="font-weight:bold;font-size:20px;">6</text><text x="220.9375" y="630.1" style="font-weight:bold;font-size:20px;">,</text><text x="233" y="630.1" style="font-weight:bold;font-size:20px;">&#xA0;</text><text x="245.0625" y="630.1" style="font-weight:bold;font-size:20px;">b</text><text x="257.125" y="630.1" style="font-weight:bold;font-size:20px;">y</text><text x="269.1875" y="630.1" style="font-weight:bold;font-size:20px;">&#xA0;</text><text x="281.25" y="630.1" style="font-weight:bold;font-size:20px;">S</text><text x="293.3125" y="630.1" style="font-weight:bold;font-size:20px;">A</text><text x="305.375" y="630.1" style="font-weight:bold;font-size:20px;">M</text><text x="317.8281" y="630.1" style="font-weight:bold;font-size:20px;">&#39;</text><text x="330.2812" y="630.1" style="font-weight:bold;font-size:20px;">L</text><text x="342.3437" y="630.1" style="font-weight:bold;font-size:20px;">&#xA0;</text><text x="354.4062" y="630.1" style="font-weight:bold;font-size:20px;">G</text><text x="366.4687" y="630.1" style="font-weight:bold;font-size:20px;">A</text><text x="378.5312" y="630.1" style="font-weight:bold;font-size:20px;">B</text><text x="390.5937" y="630.1" style="font-weight:bold;font-size:20px;">R</text><text x="402.6562" y="630.1" style="font-weight:bold;font-size:20px;">I</text><text x="414.7187" y="630.1" style="font-weight:bold;font-size:20px;">E</text><text x="426.7812" y="630.1" style="font-weight:bold;font-size:20px;">L</text><text x="438.8437" y="630.1" style="font-weight:bold;font-size:20px;">&#xA0;</text><text x="450.9062" y="630.1" style="font-weight:bold;font-size:20px;">S</text><text x="462.9687" y="630.1" style="font-weight:bold;font-size:20px;">O</text><text x="475.0312" y="630.1" style="font-weight:bold;font-size:20px;">N</text><text x="487.0937" y="630.1" style="font-weight:bold;font-size:20px;">S</text><text x="499.1562" y="630.1" style="font-weight:bold;font-size:20px;">&#xA0;</text><text x="511.2187" y="630.1" style="font-weight:bold;font-size:20px;">&amp;</text><text x="523.6718" y="630.1" style="font-weight:bold;font-size:20px;">&#xA0;</text><text x="535.7343" y="630.1" style="font-weight:bold;font-size:20px;">C</text><text x="547.7968" y="630.1" style="font-weight:bold;font-size:20px;">O</text><text x="559.8593" y="630.1" style="font-weight:bold;font-size:20px;">M</text><text x="572.3123999999999" y="630.1" style="font-weight:bold;font-size:20px;">P</text><text x="584.3748999999999" y="630.1" style="font-weight:bold;font-size:20px;">A</text><text x="596.4373999999999" y="630.1" style="font-weight:bold;font-size:20px;">N</text><text x="608.4998999999999" y="630.1" style="font-weight:bold;font-size:20px;">Y</text><text x="620.5623999999999" y="630.1" style="font-weight:bold;font-size:20px;">&#xA0;</text><text x="632.6248999999999" y="630.1" style="font-weight:bold;font-size:20px;">N</text><text x="644.6873999999999" y="630.1" style="font-weight:bold;font-size:20px;">E</text><text x="656.7498999999999" y="630.1" style="font-weight:bold;font-size:20px;">W</text><text x="668.8123999999999" y="630.1" style="font-weight:bold;font-size:20px;">&#xA0;</text><text x="680.8748999999999" y="630.1" style="font-weight:bold;font-size:20px;">Y</text><text x="692.9373999999999" y="630.1" style="font-weight:bold;font-size:20px;">O</text><text x="704.9998999999999" y="630.1" style="font-weight:bold;font-size:20px;">R</text><text x="717.0623999999999" y="630.1" style="font-weight:bold;font-size:20px;">K</text></svg>