<svg id="svgwgepi80" xmlns="http://www.w3.org/2000/svg" version="1.1" font-size="20px" viewBox="0 0 1474 743" width="1474px" height="743px" font-family="Lucida Console, Courier, monospace"><style>#svgwgepi80{cursor:default;}#svgwgepi80 text::selection{background-color:#b4d5ea;}</style><rect width="1474" height="743" fill="#f0f0f0" pointer-events="none"/><image x="40" y="55" height="90" href="C:\Users\郝洪坤\Desktop\FrontEnd\svg-ebook-reader\images\www.gutenberg.org@files@19033@19033-h@images@plate01_th.jpg" alt="${alt}"/><text x="40" y="175">A</text><text x="52.0625" y="175">l</text><text x="64.125" y="175">i</text><text x="76.1875" y="175">c</text><text x="88.25" y="175">e</text><text x="100.3125" y="175">&#xA0;</text><text x="112.375" y="175">i</text><text x="124.4375" y="175">n</text><text x="136.5" y="175">&#xA0;</text><text x="148.5625" y="175">t</text><text x="160.625" y="175">h</text><text x="172.6875" y="175">e</text><text x="184.75" y="175">&#xA0;</text><text x="196.8125" y="175">R</text><text x="208.875" y="175">o</text><text x="220.9375" y="175">o</text><text x="233" y="175">m</text><text x="245.0625" y="175">&#xA0;</text><text x="257.125" y="175">o</text><text x="269.1875" y="175">f</text><text x="281.25" y="175">&#xA0;</text><text x="293.3125" y="175">t</text><text x="305.375" y="175">h</text><text x="317.4375" y="175">e</text><text x="329.5" y="175">&#xA0;</text><text x="341.5625" y="175">D</text><text x="353.625" y="175">u</text><text x="365.6875" y="175">c</text><text x="377.75" y="175">h</text><text x="389.8125" y="175">e</text><text x="401.875" y="175">s</text><text x="413.9375" y="175">s</text><text x="426" y="175">.</text><image x="40" y="190" height="90" href="C:\Users\郝洪坤\Desktop\FrontEnd\svg-ebook-reader\images\www.gutenberg.org@files@19033@19033-h@images@i001_th.jpg" alt="${alt}"/><text x="40" y="310">A</text><text x="52.0625" y="310">L</text><text x="64.125" y="310">I</text><text x="76.1875" y="310">C</text><text x="88.25" y="310">E</text><text x="100.3125" y="310">&#39;</text><text x="112.7656" y="310">S</text><text x="124.8281" y="310">&#xA0;</text><text x="136.8906" y="310">A</text><text x="148.9531" y="310">D</text><text x="161.0156" y="310">V</text><text x="173.0781" y="310">E</text><text x="185.1406" y="310">N</text><text x="197.2031" y="310">T</text><text x="209.2656" y="310">U</text><text x="221.3281" y="310">R</text><text x="233.3906" y="310">E</text><text x="245.4531" y="310">S</text><text x="257.5156" y="310">&#xA0;</text><text x="269.5781" y="310"> </text><text x="281.6406" y="310"> </text><text x="293.7031" y="310"> </text><text x="305.7656" y="310"> </text><text x="317.8281" y="310"> </text><text x="329.8906" y="310"> </text><text x="341.9531" y="310"> </text><text x="354.0156" y="310"> </text><text x="366.0781" y="310"> </text><text x="378.1406" y="310"> </text><text x="390.2031" y="310"> </text><text x="402.2656" y="310"> </text><text x="414.3281" y="310">I</text><text x="426.3906" y="310">N</text><text x="438.4531" y="310">&#xA0;</text><text x="450.5156" y="310">W</text><text x="462.5781" y="310">O</text><text x="474.6406" y="310">N</text><text x="486.7031" y="310">D</text><text x="498.7656" y="310">E</text><text x="510.8281" y="310">R</text><text x="522.8906" y="310">L</text><text x="534.9531" y="310">A</text><text x="547.0156" y="310">N</text><text x="559.0781" y="310">D</text><text x="40" y="355" style="font-weight:bold;font-size:30px;">I</text><text x="58.6875" y="355" style="font-weight:bold;font-size:30px;">—</text><text x="77.375" y="355" style="font-weight:bold;font-size:30px;">D</text><text x="96.0625" y="355" style="font-weight:bold;font-size:30px;">O</text><text x="114.75" y="355" style="font-weight:bold;font-size:30px;">W</text><text x="133.4375" y="355" style="font-weight:bold;font-size:30px;">N</text><text x="152.125" y="355" style="font-weight:bold;font-size:30px;">&#xA0;</text><text x="170.2031" y="355" style="font-weight:bold;font-size:30px;">T</text><text x="188.8906" y="355" style="font-weight:bold;font-size:30px;">H</text><text x="207.5781" y="355" style="font-weight:bold;font-size:30px;">E</text><text x="226.2656" y="355" style="font-weight:bold;font-size:30px;">&#xA0;</text><text x="244.3437" y="355" style="font-weight:bold;font-size:30px;">R</text><text x="263.0312" y="355" style="font-weight:bold;font-size:30px;">A</text><text x="281.7187" y="355" style="font-weight:bold;font-size:30px;">B</text><text x="300.4062" y="355" style="font-weight:bold;font-size:30px;">B</text><text x="319.0937" y="355" style="font-weight:bold;font-size:30px;">I</text><text x="337.7812" y="355" style="font-weight:bold;font-size:30px;">T</text><text x="356.4687" y="355" style="font-weight:bold;font-size:30px;">-</text><text x="375.1562" y="355" style="font-weight:bold;font-size:30px;">H</text><text x="393.8437" y="355" style="font-weight:bold;font-size:30px;">O</text><text x="412.5312" y="355" style="font-weight:bold;font-size:30px;">L</text><text x="431.2187" y="355" style="font-weight:bold;font-size:30px;">E</text><text x="40" y="385">A</text><text x="52.0625" y="385">l</text><text x="64.125" y="385">i</text><text x="76.1875" y="385">c</text><text x="88.25" y="385">e</text><text x="100.3125" y="385">&#xA0;</text><text x="112.375" y="385">w</text><text x="124.4375" y="385">a</text><text x="136.5" y="385">s</text><text x="148.5625" y="385">&#xA0;</text><text x="160.625" y="385">b</text><text x="172.6875" y="385">e</text><text x="184.75" y="385">g</text><text x="196.8125" y="385">i</text><text x="208.875" y="385">n</text><text x="220.9375" y="385">n</text><text x="233" y="385">i</text><text x="245.0625" y="385">n</text><text x="257.125" y="385">g</text><text x="269.1875" y="385">&#xA0;</text><text x="281.25" y="385">t</text><text x="293.3125" y="385">o</text><text x="305.375" y="385">&#xA0;</text><text x="317.4375" y="385">g</text><text x="329.5" y="385">e</text><text x="341.5625" y="385">t</text><text x="353.625" y="385">&#xA0;</text><text x="365.6875" y="385">v</text><text x="377.75" y="385">e</text><text x="389.8125" y="385">r</text><text x="401.875" y="385">y</text><text x="413.9375" y="385">&#xA0;</text><text x="426" y="385">t</text><text x="438.0625" y="385">i</text><text x="450.125" y="385">r</text><text x="462.1875" y="385">e</text><text x="474.25" y="385">d</text><text x="486.3125" y="385">&#xA0;</text><text x="498.375" y="385">o</text><text x="510.4375" y="385">f</text><text x="522.5" y="385">&#xA0;</text><text x="534.5625" y="385">s</text><text x="546.625" y="385">i</text><text x="558.6875" y="385">t</text><text x="570.75" y="385">t</text><text x="582.8125" y="385">i</text><text x="594.875" y="385">n</text><text x="606.9375" y="385">g</text><text x="619" y="385">&#xA0;</text><text x="631.0625" y="385">b</text><text x="643.125" y="385">y</text><text x="655.1875" y="385">&#xA0;</text><text x="667.25" y="385">h</text><text x="679.3125" y="385">e</text><text x="691.375" y="385">r</text><text x="703.4375" y="385">&#xA0;</text><text x="715.5" y="385">s</text><text x="727.5625" y="385">i</text><text x="739.625" y="385">s</text><text x="751.6875" y="385">t</text><text x="763.75" y="385">e</text><text x="775.8125" y="385">r</text><text x="787.875" y="385">&#xA0;</text><text x="799.9375" y="385">o</text><text x="812" y="385">n</text><text x="824.0625" y="385">&#xA0;</text><text x="836.125" y="385">t</text><text x="848.1875" y="385">h</text><text x="860.25" y="385">e</text><text x="872.3125" y="385">&#xA0;</text><text x="884.375" y="385">b</text><text x="896.4375" y="385">a</text><text x="908.5" y="385">n</text><text x="920.5625" y="385">k</text><text x="932.625" y="385">,</text><text x="944.6875" y="385">&#xA0;</text><text x="956.75" y="385">a</text><text x="968.8125" y="385">n</text><text x="980.875" y="385">d</text><text x="992.9375" y="385">&#xA0;</text><text x="1005" y="385">o</text><text x="1017.0625" y="385">f</text><text x="1029.125" y="385">&#xA0;</text><text x="1041.1875" y="385">h</text><text x="1053.25" y="385">a</text><text x="1065.3125" y="385">v</text><text x="1077.375" y="385">i</text><text x="1089.4375" y="385">n</text><text x="1101.5" y="385">g</text><text x="1113.5625" y="385">&#xA0;</text><text x="1125.625" y="385">n</text><text x="1137.6875" y="385">o</text><text x="1149.75" y="385">t</text><text x="1161.8125" y="385">h</text><text x="1173.875" y="385">i</text><text x="1185.9375" y="385">n</text><text x="1198" y="385">g</text><text x="1210.0625" y="385">&#xA0;</text><text x="1222.125" y="385">t</text><text x="1234.1875" y="385">o</text><text x="1246.25" y="385">&#xA0;</text><text x="1258.3125" y="385">d</text><text x="1270.375" y="385">o</text><text x="1282.4375" y="385">.</text><text x="1294.5" y="385">&#xA0;</text><text x="1306.5625" y="385">O</text><text x="1318.625" y="385">n</text><text x="1330.6875" y="385">c</text><text x="1342.75" y="385">e</text><text x="1354.8125" y="385">&#xA0;</text><text x="1366.875" y="385">o</text><text x="1378.9375" y="385">r</text><text x="1391" y="385">&#xA0;</text><text x="1403.0625" y="385">t</text><text x="1415.125" y="385">w</text><text x="1427.1875" y="385">-</text><text x="40" y="415">i</text><text x="52.0625" y="415">c</text><text x="64.125" y="415">e</text><text x="76.1875" y="415">&#xA0;</text><text x="88.25" y="415">s</text><text x="100.3125" y="415">h</text><text x="112.375" y="415">e</text><text x="124.4375" y="415">&#xA0;</text><text x="136.5" y="415">h</text><text x="148.5625" y="415">a</text><text x="160.625" y="415">d</text><text x="172.6875" y="415">&#xA0;</text><text x="184.75" y="415">p</text><text x="196.8125" y="415">e</text><text x="208.875" y="415">e</text><text x="220.9375" y="415">p</text><text x="233" y="415">e</text><text x="245.0625" y="415">d</text><text x="257.125" y="415">&#xA0;</text><text x="269.1875" y="415">i</text><text x="281.25" y="415">n</text><text x="293.3125" y="415">t</text><text x="305.375" y="415">o</text><text x="317.4375" y="415">&#xA0;</text><text x="329.5" y="415">t</text><text x="341.5625" y="415">h</text><text x="353.625" y="415">e</text><text x="365.6875" y="415">&#xA0;</text><text x="377.75" y="415">b</text><text x="389.8125" y="415">o</text><text x="401.875" y="415">o</text><text x="413.9375" y="415">k</text><text x="426" y="415">&#xA0;</text><text x="438.0625" y="415">h</text><text x="450.125" y="415">e</text><text x="462.1875" y="415">r</text><text x="474.25" y="415">&#xA0;</text><text x="486.3125" y="415">s</text><text x="498.375" y="415">i</text><text x="510.4375" y="415">s</text><text x="522.5" y="415">t</text><text x="534.5625" y="415">e</text><text x="546.625" y="415">r</text><text x="558.6875" y="415">&#xA0;</text><text x="570.75" y="415">w</text><text x="582.8125" y="415">a</text><text x="594.875" y="415">s</text><text x="606.9375" y="415">&#xA0;</text><text x="619" y="415">r</text><text x="631.0625" y="415">e</text><text x="643.125" y="415">a</text><text x="655.1875" y="415">d</text><text x="667.25" y="415">i</text><text x="679.3125" y="415">n</text><text x="691.375" y="415">g</text><text x="703.4375" y="415">,</text><text x="715.5" y="415">&#xA0;</text><text x="727.5625" y="415">b</text><text x="739.625" y="415">u</text><text x="751.6875" y="415">t</text><text x="763.75" y="415">&#xA0;</text><text x="775.8125" y="415">i</text><text x="787.875" y="415">t</text><text x="799.9375" y="415">&#xA0;</text><text x="812" y="415">h</text><text x="824.0625" y="415">a</text><text x="836.125" y="415">d</text><text x="848.1875" y="415">&#xA0;</text><text x="860.25" y="415">n</text><text x="872.3125" y="415">o</text><text x="884.375" y="415">&#xA0;</text><text x="896.4375" y="415">p</text><text x="908.5" y="415">i</text><text x="920.5625" y="415">c</text><text x="932.625" y="415">t</text><text x="944.6875" y="415">u</text><text x="956.75" y="415">r</text><text x="968.8125" y="415">e</text><text x="980.875" y="415">s</text><text x="992.9375" y="415">&#xA0;</text><text x="1005" y="415">o</text><text x="1017.0625" y="415">r</text><text x="1029.125" y="415">&#xA0;</text><text x="1041.1875" y="415">c</text><text x="1053.25" y="415">o</text><text x="1065.3125" y="415">n</text><text x="1077.375" y="415">v</text><text x="1089.4375" y="415">e</text><text x="1101.5" y="415">r</text><text x="1113.5625" y="415">s</text><text x="1125.625" y="415">a</text><text x="1137.6875" y="415">t</text><text x="1149.75" y="415">i</text><text x="1161.8125" y="415">o</text><text x="1173.875" y="415">n</text><text x="1185.9375" y="415">s</text><text x="1198" y="415">&#xA0;</text><text x="1210.0625" y="415">i</text><text x="1222.125" y="415">n</text><text x="1234.1875" y="415">&#xA0;</text><text x="1246.25" y="415">i</text><text x="1258.3125" y="415">t</text><text x="1270.375" y="415">,</text><text x="1282.4375" y="415">&#xA0;</text><text x="1294.5" y="415">&quot;</text><text x="1306.5625" y="415">a</text><text x="1318.625" y="415">n</text><text x="1330.6875" y="415">d</text><text x="1342.75" y="415">&#xA0;</text><text x="1354.8125" y="415">w</text><text x="1366.875" y="415">h</text><text x="1378.9375" y="415">a</text><text x="1391" y="415">t</text><text x="1403.0625" y="415">&#xA0;</text><text x="1415.125" y="415">i</text><text x="1427.1875" y="415">-</text><text x="40" y="445">s</text><text x="52.0625" y="445">&#xA0;</text><text x="64.125" y="445">t</text><text x="76.1875" y="445">h</text><text x="88.25" y="445">e</text><text x="100.3125" y="445">&#xA0;</text><text x="112.375" y="445">u</text><text x="124.4375" y="445">s</text><text x="136.5" y="445">e</text><text x="148.5625" y="445">&#xA0;</text><text x="160.625" y="445">o</text><text x="172.6875" y="445">f</text><text x="184.75" y="445">&#xA0;</text><text x="196.8125" y="445">a</text><text x="208.875" y="445">&#xA0;</text><text x="220.9375" y="445">b</text><text x="233" y="445">o</text><text x="245.0625" y="445">o</text><text x="257.125" y="445">k</text><text x="269.1875" y="445">,</text><text x="281.25" y="445">&quot;</text><text x="293.3125" y="445">&#xA0;</text><text x="305.375" y="445">t</text><text x="317.4375" y="445">h</text><text x="329.5" y="445">o</text><text x="341.5625" y="445">u</text><text x="353.625" y="445">g</text><text x="365.6875" y="445">h</text><text x="377.75" y="445">t</text><text x="389.8125" y="445">&#xA0;</text><text x="401.875" y="445">A</text><text x="413.9375" y="445">l</text><text x="426" y="445">i</text><text x="438.0625" y="445">c</text><text x="450.125" y="445">e</text><text x="462.1875" y="445">,</text><text x="474.25" y="445">&#xA0;</text><text x="486.3125" y="445">&quot;</text><text x="498.375" y="445">w</text><text x="510.4375" y="445">i</text><text x="522.5" y="445">t</text><text x="534.5625" y="445">h</text><text x="546.625" y="445">o</text><text x="558.6875" y="445">u</text><text x="570.75" y="445">t</text><text x="582.8125" y="445">&#xA0;</text><text x="594.875" y="445">p</text><text x="606.9375" y="445">i</text><text x="619" y="445">c</text><text x="631.0625" y="445">t</text><text x="643.125" y="445">u</text><text x="655.1875" y="445">r</text><text x="667.25" y="445">e</text><text x="679.3125" y="445">s</text><text x="691.375" y="445">&#xA0;</text><text x="703.4375" y="445">o</text><text x="715.5" y="445">r</text><text x="727.5625" y="445">&#xA0;</text><text x="739.625" y="445">c</text><text x="751.6875" y="445">o</text><text x="763.75" y="445">n</text><text x="775.8125" y="445">v</text><text x="787.875" y="445">e</text><text x="799.9375" y="445">r</text><text x="812" y="445">s</text><text x="824.0625" y="445">a</text><text x="836.125" y="445">t</text><text x="848.1875" y="445">i</text><text x="860.25" y="445">o</text><text x="872.3125" y="445">n</text><text x="884.375" y="445">s</text><text x="896.4375" y="445">?</text><text x="908.5" y="445">&quot;</text><text x="40" y="475">S</text><text x="52.0625" y="475">o</text><text x="64.125" y="475">&#xA0;</text><text x="76.1875" y="475">s</text><text x="88.25" y="475">h</text><text x="100.3125" y="475">e</text><text x="112.375" y="475">&#xA0;</text><text x="124.4375" y="475">w</text><text x="136.5" y="475">a</text><text x="148.5625" y="475">s</text><text x="160.625" y="475">&#xA0;</text><text x="172.6875" y="475">c</text><text x="184.75" y="475">o</text><text x="196.8125" y="475">n</text><text x="208.875" y="475">s</text><text x="220.9375" y="475">i</text><text x="233" y="475">d</text><text x="245.0625" y="475">e</text><text x="257.125" y="475">r</text><text x="269.1875" y="475">i</text><text x="281.25" y="475">n</text><text x="293.3125" y="475">g</text><text x="305.375" y="475">&#xA0;</text><text x="317.4375" y="475">i</text><text x="329.5" y="475">n</text><text x="341.5625" y="475">&#xA0;</text><text x="353.625" y="475">h</text><text x="365.6875" y="475">e</text><text x="377.75" y="475">r</text><text x="389.8125" y="475">&#xA0;</text><text x="401.875" y="475">o</text><text x="413.9375" y="475">w</text><text x="426" y="475">n</text><text x="438.0625" y="475">&#xA0;</text><text x="450.125" y="475">m</text><text x="462.1875" y="475">i</text><text x="474.25" y="475">n</text><text x="486.3125" y="475">d</text><text x="498.375" y="475">&#xA0;</text><text x="510.4375" y="475">(</text><text x="522.5" y="475">a</text><text x="534.5625" y="475">s</text><text x="546.625" y="475">&#xA0;</text><text x="558.6875" y="475">w</text><text x="570.75" y="475">e</text><text x="582.8125" y="475">l</text><text x="594.875" y="475">l</text><text x="606.9375" y="475">&#xA0;</text><text x="619" y="475">a</text><text x="631.0625" y="475">s</text><text x="643.125" y="475">&#xA0;</text><text x="655.1875" y="475">s</text><text x="667.25" y="475">h</text><text x="679.3125" y="475">e</text><text x="691.375" y="475">&#xA0;</text><text x="703.4375" y="475">c</text><text x="715.5" y="475">o</text><text x="727.5625" y="475">u</text><text x="739.625" y="475">l</text><text x="751.6875" y="475">d</text><text x="763.75" y="475">,</text><text x="775.8125" y="475">&#xA0;</text><text x="787.875" y="475">f</text><text x="799.9375" y="475">o</text><text x="812" y="475">r</text><text x="824.0625" y="475">&#xA0;</text><text x="836.125" y="475">t</text><text x="848.1875" y="475">h</text><text x="860.25" y="475">e</text><text x="872.3125" y="475">&#xA0;</text><text x="884.375" y="475">d</text><text x="896.4375" y="475">a</text><text x="908.5" y="475">y</text><text x="920.5625" y="475">&#xA0;</text><text x="932.625" y="475">m</text><text x="944.6875" y="475">a</text><text x="956.75" y="475">d</text><text x="968.8125" y="475">e</text><text x="980.875" y="475">&#xA0;</text><text x="992.9375" y="475">h</text><text x="1005" y="475">e</text><text x="1017.0625" y="475">r</text><text x="1029.125" y="475">&#xA0;</text><text x="1041.1875" y="475">f</text><text x="1053.25" y="475">e</text><text x="1065.3125" y="475">e</text><text x="1077.375" y="475">l</text><text x="1089.4375" y="475">&#xA0;</text><text x="1101.5" y="475">v</text><text x="1113.5625" y="475">e</text><text x="1125.625" y="475">r</text><text x="1137.6875" y="475">y</text><text x="1149.75" y="475">&#xA0;</text><text x="1161.8125" y="475">s</text><text x="1173.875" y="475">l</text><text x="1185.9375" y="475">e</text><text x="1198" y="475">e</text><text x="1210.0625" y="475">p</text><text x="1222.125" y="475">y</text><text x="1234.1875" y="475">&#xA0;</text><text x="1246.25" y="475">a</text><text x="1258.3125" y="475">n</text><text x="1270.375" y="475">d</text><text x="1282.4375" y="475">&#xA0;</text><text x="1294.5" y="475">s</text><text x="1306.5625" y="475">t</text><text x="1318.625" y="475">u</text><text x="1330.6875" y="475">p</text><text x="1342.75" y="475">i</text><text x="1354.8125" y="475">d</text><text x="1366.875" y="475">)</text><text x="1378.9375" y="475">,</text><text x="1391" y="475">&#xA0;</text><text x="1403.0625" y="475">w</text><text x="1415.125" y="475">h</text><text x="1427.1875" y="475">-</text><text x="40" y="505">e</text><text x="52.0625" y="505">t</text><text x="64.125" y="505">h</text><text x="76.1875" y="505">e</text><text x="88.25" y="505">r</text><text x="100.3125" y="505">&#xA0;</text><text x="112.375" y="505">t</text><text x="124.4375" y="505">h</text><text x="136.5" y="505">e</text><text x="148.5625" y="505">&#xA0;</text><text x="160.625" y="505">p</text><text x="172.6875" y="505">l</text><text x="184.75" y="505">e</text><text x="196.8125" y="505">a</text><text x="208.875" y="505">s</text><text x="220.9375" y="505">u</text><text x="233" y="505">r</text><text x="245.0625" y="505">e</text><text x="257.125" y="505">&#xA0;</text><text x="269.1875" y="505">o</text><text x="281.25" y="505">f</text><text x="293.3125" y="505">&#xA0;</text><text x="305.375" y="505">m</text><text x="317.4375" y="505">a</text><text x="329.5" y="505">k</text><text x="341.5625" y="505">i</text><text x="353.625" y="505">n</text><text x="365.6875" y="505">g</text><text x="377.75" y="505">&#xA0;</text><text x="389.8125" y="505">a</text><text x="401.875" y="505">&#xA0;</text><text x="413.9375" y="505">d</text><text x="426" y="505">a</text><text x="438.0625" y="505">i</text><text x="450.125" y="505">s</text><text x="462.1875" y="505">y</text><text x="474.25" y="505">-</text><text x="486.3125" y="505">c</text><text x="498.375" y="505">h</text><text x="510.4375" y="505">a</text><text x="522.5" y="505">i</text><text x="534.5625" y="505">n</text><text x="546.625" y="505">&#xA0;</text><text x="558.6875" y="505">w</text><text x="570.75" y="505">o</text><text x="582.8125" y="505">u</text><text x="594.875" y="505">l</text><text x="606.9375" y="505">d</text><text x="619" y="505">&#xA0;</text><text x="631.0625" y="505">b</text><text x="643.125" y="505">e</text><text x="655.1875" y="505">&#xA0;</text><text x="667.25" y="505">w</text><text x="679.3125" y="505">o</text><text x="691.375" y="505">r</text><text x="703.4375" y="505">t</text><text x="715.5" y="505">h</text><text x="727.5625" y="505">&#xA0;</text><text x="739.625" y="505">t</text><text x="751.6875" y="505">h</text><text x="763.75" y="505">e</text><text x="775.8125" y="505">&#xA0;</text><text x="787.875" y="505">t</text><text x="799.9375" y="505">r</text><text x="812" y="505">o</text><text x="824.0625" y="505">u</text><text x="836.125" y="505">b</text><text x="848.1875" y="505">l</text><text x="860.25" y="505">e</text><text x="872.3125" y="505">&#xA0;</text><text x="884.375" y="505">o</text><text x="896.4375" y="505">f</text><text x="908.5" y="505">&#xA0;</text><text x="920.5625" y="505">g</text><text x="932.625" y="505">e</text><text x="944.6875" y="505">t</text><text x="956.75" y="505">t</text><text x="968.8125" y="505">i</text><text x="980.875" y="505">n</text><text x="992.9375" y="505">g</text><text x="1005" y="505">&#xA0;</text><text x="1017.0625" y="505">u</text><text x="1029.125" y="505">p</text><text x="1041.1875" y="505">&#xA0;</text><text x="1053.25" y="505">a</text><text x="1065.3125" y="505">n</text><text x="1077.375" y="505">d</text><text x="1089.4375" y="505">&#xA0;</text><text x="1101.5" y="505">p</text><text x="1113.5625" y="505">i</text><text x="1125.625" y="505">c</text><text x="1137.6875" y="505">k</text><text x="1149.75" y="505">i</text><text x="1161.8125" y="505">n</text><text x="1173.875" y="505">g</text><text x="1185.9375" y="505">&#xA0;</text><text x="1198" y="505">t</text><text x="1210.0625" y="505">h</text><text x="1222.125" y="505">e</text><text x="1234.1875" y="505">&#xA0;</text><text x="1246.25" y="505">d</text><text x="1258.3125" y="505">a</text><text x="1270.375" y="505">i</text><text x="1282.4375" y="505">s</text><text x="1294.5" y="505">i</text><text x="1306.5625" y="505">e</text><text x="1318.625" y="505">s</text><text x="1330.6875" y="505">,</text><text x="1342.75" y="505">&#xA0;</text><text x="1354.8125" y="505">w</text><text x="1366.875" y="505">h</text><text x="1378.9375" y="505">e</text><text x="1391" y="505">n</text><text x="1403.0625" y="505">&#xA0;</text><text x="1415.125" y="505">s</text><text x="1427.1875" y="505">-</text><text x="40" y="535">u</text><text x="52.0625" y="535">d</text><text x="64.125" y="535">d</text><text x="76.1875" y="535">e</text><text x="88.25" y="535">n</text><text x="100.3125" y="535">l</text><text x="112.375" y="535">y</text><text x="124.4375" y="535">&#xA0;</text><text x="136.5" y="535">a</text><text x="148.5625" y="535">&#xA0;</text><text x="160.625" y="535">W</text><text x="172.6875" y="535">h</text><text x="184.75" y="535">i</text><text x="196.8125" y="535">t</text><text x="208.875" y="535">e</text><text x="220.9375" y="535">&#xA0;</text><text x="233" y="535">R</text><text x="245.0625" y="535">a</text><text x="257.125" y="535">b</text><text x="269.1875" y="535">b</text><text x="281.25" y="535">i</text><text x="293.3125" y="535">t</text><text x="305.375" y="535">&#xA0;</text><text x="317.4375" y="535">w</text><text x="329.5" y="535">i</text><text x="341.5625" y="535">t</text><text x="353.625" y="535">h</text><text x="365.6875" y="535">&#xA0;</text><text x="377.75" y="535">p</text><text x="389.8125" y="535">i</text><text x="401.875" y="535">n</text><text x="413.9375" y="535">k</text><text x="426" y="535">&#xA0;</text><text x="438.0625" y="535">e</text><text x="450.125" y="535">y</text><text x="462.1875" y="535">e</text><text x="474.25" y="535">s</text><text x="486.3125" y="535">&#xA0;</text><text x="498.375" y="535">r</text><text x="510.4375" y="535">a</text><text x="522.5" y="535">n</text><text x="534.5625" y="535">&#xA0;</text><text x="546.625" y="535">c</text><text x="558.6875" y="535">l</text><text x="570.75" y="535">o</text><text x="582.8125" y="535">s</text><text x="594.875" y="535">e</text><text x="606.9375" y="535">&#xA0;</text><text x="619" y="535">b</text><text x="631.0625" y="535">y</text><text x="643.125" y="535">&#xA0;</text><text x="655.1875" y="535">h</text><text x="667.25" y="535">e</text><text x="679.3125" y="535">r</text><text x="691.375" y="535">.</text><image x="40" y="550" height="90" href="C:\Users\郝洪坤\Desktop\FrontEnd\svg-ebook-reader\images\www.gutenberg.org@files@19033@19033-h@images@i002_th.jpg" alt="${alt}"/><text x="40" y="670">T</text><text x="52.0625" y="670">h</text><text x="64.125" y="670">e</text><text x="76.1875" y="670">r</text><text x="88.25" y="670">e</text><text x="100.3125" y="670">&#xA0;</text><text x="112.375" y="670">w</text><text x="124.4375" y="670">a</text><text x="136.5" y="670">s</text><text x="148.5625" y="670">&#xA0;</text><text x="160.625" y="670">n</text><text x="172.6875" y="670">o</text><text x="184.75" y="670">t</text><text x="196.8125" y="670">h</text><text x="208.875" y="670">i</text><text x="220.9375" y="670">n</text><text x="233" y="670">g</text><text x="245.0625" y="670">&#xA0;</text><text x="257.125" y="670">s</text><text x="269.1875" y="670">o</text><text x="281.25" y="670">&#xA0;</text><text x="293.3125" y="670">v</text><text x="305.375" y="670">e</text><text x="317.4375" y="670">r</text><text x="329.5" y="670">y</text><text x="341.5625" y="670">&#xA0;</text><text x="353.625" y="670">r</text><text x="365.6875" y="670">e</text><text x="377.75" y="670">m</text><text x="389.8125" y="670">a</text><text x="401.875" y="670">r</text><text x="413.9375" y="670">k</text><text x="426" y="670">a</text><text x="438.0625" y="670">b</text><text x="450.125" y="670">l</text><text x="462.1875" y="670">e</text><text x="474.25" y="670">&#xA0;</text><text x="486.3125" y="670">i</text><text x="498.375" y="670">n</text><text x="510.4375" y="670">&#xA0;</text><text x="522.5" y="670">t</text><text x="534.5625" y="670">h</text><text x="546.625" y="670">a</text><text x="558.6875" y="670">t</text><text x="570.75" y="670">,</text><text x="582.8125" y="670">&#xA0;</text><text x="594.875" y="670">n</text><text x="606.9375" y="670">o</text><text x="619" y="670">r</text><text x="631.0625" y="670">&#xA0;</text><text x="643.125" y="670">d</text><text x="655.1875" y="670">i</text><text x="667.25" y="670">d</text><text x="679.3125" y="670">&#xA0;</text><text x="691.375" y="670">A</text><text x="703.4375" y="670">l</text><text x="715.5" y="670">i</text><text x="727.5625" y="670">c</text><text x="739.625" y="670">e</text><text x="751.6875" y="670">&#xA0;</text><text x="763.75" y="670">t</text><text x="775.8125" y="670">h</text><text x="787.875" y="670">i</text><text x="799.9375" y="670">n</text><text x="812" y="670">k</text><text x="824.0625" y="670">&#xA0;</text><text x="836.125" y="670">i</text><text x="848.1875" y="670">t</text><text x="860.25" y="670">&#xA0;</text><text x="872.3125" y="670">s</text><text x="884.375" y="670">o</text><text x="896.4375" y="670">&#xA0;</text><text x="908.5" y="670">v</text><text x="920.5625" y="670">e</text><text x="932.625" y="670">r</text><text x="944.6875" y="670">y</text><text x="956.75" y="670">&#xA0;</text><text x="968.8125" y="670">m</text><text x="980.875" y="670">u</text><text x="992.9375" y="670">c</text><text x="1005" y="670">h</text><text x="1017.0625" y="670">&#xA0;</text><text x="1029.125" y="670">o</text><text x="1041.1875" y="670">u</text><text x="1053.25" y="670">t</text><text x="1065.3125" y="670">&#xA0;</text><text x="1077.375" y="670">o</text><text x="1089.4375" y="670">f</text><text x="1101.5" y="670">&#xA0;</text><text x="1113.5625" y="670">t</text><text x="1125.625" y="670">h</text><text x="1137.6875" y="670">e</text><text x="1149.75" y="670">&#xA0;</text><text x="1161.8125" y="670">w</text><text x="1173.875" y="670">a</text><text x="1185.9375" y="670">y</text><text x="1198" y="670">&#xA0;</text><text x="1210.0625" y="670">t</text><text x="1222.125" y="670">o</text><text x="1234.1875" y="670">&#xA0;</text><text x="1246.25" y="670">h</text><text x="1258.3125" y="670">e</text><text x="1270.375" y="670">a</text><text x="1282.4375" y="670">r</text><text x="1294.5" y="670">&#xA0;</text><text x="1306.5625" y="670">t</text><text x="1318.625" y="670">h</text><text x="1330.6875" y="670">e</text><text x="1342.75" y="670">&#xA0;</text><text x="1354.8125" y="670">R</text><text x="1366.875" y="670">a</text><text x="1378.9375" y="670">b</text><text x="1391" y="670">b</text><text x="1403.0625" y="670">i</text><text x="1415.125" y="670">t</text></svg>